<?xml version="1.0" encoding="utf-8"?>
<!-- Generator: Adobe Illustrator 27.7.0, SVG Export Plug-In . SVG Version: 6.00 Build 0)  -->
<svg version="1.1" id="Layer_1" xmlns="http://www.w3.org/2000/svg" xmlns:xlink="http://www.w3.org/1999/xlink" x="0px" y="0px"
	 viewBox="0 0 1018 187" style="enable-background:new 0 0 1018 187;" xml:space="preserve">
<style type="text/css">
	.st0{fill:#FFFFFF;}
	.st1{fill:#3464FD;}
</style>
<path class="st0" d="M386.9,84c-0.5-2.1-1.1-4.1-1.8-6.1c-3-8.8-7.9-15.7-14.9-20.9s-16.4-7.8-28.2-7.8c-10.7,0-20.3,2.4-28.9,7.3
	s-15.4,11.7-20.5,20.3c-5,8.7-7.6,18.8-7.6,30.4c0,11.6,2.5,21.2,7.4,29.9c5,8.7,11.6,15.5,20,20.4c8.4,4.9,17.6,7.3,27.7,7.3
	c9.2,0,16.9-1.8,23.2-5.4c6.3-3.6,11.3-8.3,15.1-14.1s6.6-12,8.3-18.8l0,36.2h24.9l0-110h-24.9L386.9,84L386.9,84z M382.3,126.3
	c-3,5.6-7.5,10-13.3,13.2c-5.9,3.2-12.9,4.8-21.2,4.8c-7.3,0-13.7-1.6-19.4-4.7c-5.6-3.1-10-7.5-13.2-13.1
	c-3.2-5.6-4.8-12.1-4.8-19.3c0-11.1,3.3-20.2,9.8-27.1c6.5-7,15.7-10.4,27.6-10.4c8.3,0,15.3,1.5,21.1,4.6c5.8,3,10.2,7.3,13.3,12.9
	c3.1,5.6,4.7,12.3,4.7,20.1C386.9,114.3,385.3,120.7,382.3,126.3L382.3,126.3z"/>
<path class="st0" d="M553.6,14.7c-6.2,2.7-10.8,7.3-14,12.9c-3.2,5.6-4.8,11.9-4.8,20.8v4.3h-55.1v-1.5c0-5.2,0.9-9.1,2.6-11.9
	c1.7-2.7,4.1-4.2,7.2-5.4c3.1-1.1,6.7-1.5,10.7-1.4h14V10.7h-18.5c-8.5,0-15.8,1.3-21.9,4c-6.2,2.7-10.8,6.8-14,12.5
	c-3.2,5.6-4.8,12.9-4.8,21.8v3.7h-21.8v20.3H455v89.6h24.7V72.9h55.1v89.6h24.7V72.9h34.2V52.6h-34.2v-2c0-5.2,0.9-8.2,2.6-11
	c1.7-2.8,4.1-4.7,7.2-5.8c3.1-1,6.7-1.5,10.7-1.3h13.8V10.7h-18C567.2,10.7,559.8,12,553.6,14.7L553.6,14.7z"/>
<path class="st0" d="M640.1,10.7h-24.9v21.9h24.9V10.7z"/>
<path class="st0" d="M640.1,52.6h-24.9v110h24.9V52.6z"/>
<path class="st0" d="M764.7,60c-3.9-3.6-8.6-6.3-14-8.1c-5.4-1.8-11.3-2.7-17.7-2.7c-6.8,0-13,1.1-18.7,3.3
	c-5.6,2.2-10.5,5.3-14.7,9.2s-7.5,8.4-10,13.3c-1.4,2.7-2.5,5.5-3.3,8.4v-31h-24.7v110h24.7V96.5c1.1-3.4,2.8-6.6,5.1-9.6
	c3.7-4.8,8.5-8.8,14.3-11.8c5.9-3,12.3-4.6,19.5-4.6c9.3,0,16.2,2.2,20.6,6.6c4.4,4.4,6.6,11.1,6.6,20.1v65.3H777V92.4
	c0-7.3-1.1-13.6-3.2-18.9C771.6,68.1,768.6,63.6,764.7,60L764.7,60z"/>
<path class="st0" d="M823.3,10.7h-24.9v21.8h24.9V10.7z"/>
<path class="st0" d="M823.3,52.6h-24.9v110h24.9V52.6z"/>
<path class="st0" d="M946.6,84.2c-1.7-6.8-4.4-12.8-8-17.9c-3.7-5.3-8.8-9.4-15.1-12.5c-6.4-3-14.2-4.6-23.6-4.6
	c-10.7,0-20.1,2.5-28.3,7.3S856.8,68.3,852,76.9c-4.8,8.7-7.2,18.8-7.2,30.4c0,11.6,2.5,21.2,7.3,29.9c4.9,8.7,11.5,15.4,19.9,20.4
	c8.4,4.9,17.7,7.3,27.9,7.3c9.2,0,16.9-1.8,23.2-5.4c6.3-3.6,11.3-8.3,15.1-14.1c3.8-5.8,6.6-12,8.3-18.8v9.7v26.4h24.9V10.7h-24.9
	V84.2z M942.1,126.4c-3,5.6-7.5,10-13.3,13.2c-5.9,3.2-12.9,4.8-21.2,4.8c-7.3,0-13.7-1.6-19.3-4.7s-10-7.5-13.2-13.1
	c-3.2-5.6-4.8-12.1-4.8-19.3c0-11.1,3.3-20.2,9.8-27.2c6.5-7,15.7-10.6,27.6-10.6c8.3,0,15.3,1.6,21.1,4.7c5.8,3.1,10.2,7.4,13.3,13
	c3.1,5.6,4.7,12.3,4.7,20.1C946.6,114.4,945.1,120.8,942.1,126.4L942.1,126.4z"/>
<path class="st0" d="M1017.9,10.6H993v22h24.9V10.6z"/>
<path class="st0" d="M1017.9,52.6H993v110h24.9V52.6z"/>
<path class="st0" d="M25.7,157.7c17,17.8,41,28.9,67.5,28.9c26.5,0,50.5-11.1,67.5-28.9H25.7L25.7,157.7z"/>
<path class="st0" d="M160.7,52.6H9.2c-4.3,8.9-7.3,18.7-8.6,28.9h160.1V52.6z"/>
<path class="st0" d="M160.7,28.9C143.7,11.1,119.7,0,93.2,0S42.7,11.1,25.7,28.9H160.7z"/>
<path class="st0" d="M160.7,105.1H0.6c1.3,10.2,4.3,20,8.6,28.9h151.5V105.1z"/>
<path class="st0" d="M177.1,52.6c4.3,8.9,7.3,18.7,8.6,28.9h37.2V52.6H177.1z"/>
<path class="st0" d="M222.9,157.7h-62.2v28.9h62.2V157.7z"/>
<path class="st0" d="M177.1,134h45.8v-28.9h-37.2C184.4,115.4,181.5,125.1,177.1,134z"/>
<path class="st0" d="M222.9,0h-62.2v28.9h62.2V0z"/>
<path class="st1" d="M185.7,81.5c-1.3-10.2-4.3-20-8.6-28.9c-4.2-8.7-9.8-16.7-16.4-23.6v128.8c6.6-6.9,12.2-14.9,16.4-23.6
	c4.3-8.9,7.3-18.7,8.6-28.9c0.5-3.9,0.7-7.8,0.7-11.8S186.2,85.3,185.7,81.5L185.7,81.5z"/>
</svg>
